<?xml version="1.0" standalone="no"?>
<!DOCTYPE svg PUBLIC "-//W3C//DTD SVG 20010904//EN"
 "http://www.w3.org/TR/2001/REC-SVG-20010904/DTD/svg10.dtd">
<svg version="1.0" xmlns="http://www.w3.org/2000/svg"
 width="500.000000pt" height="500.000000pt" viewBox="0 0 500.000000 500.000000"
 preserveAspectRatio="xMidYMid meet">

<g transform="translate(0.000000,500.000000) scale(0.100000,-0.100000)"
fill="#000000" stroke="none">
<path d="M1481 3992 c-47 -7 -92 -45 -115 -97 -19 -41 -33 -2258 -17 -2563 13
-251 21 -276 104 -316 l55 -27 713 4 c681 3 718 5 804 24 118 28 194 55 274
99 227 125 355 306 392 554 17 116 7 465 -16 550 -28 105 -107 248 -172 314
l-57 58 22 36 c36 57 81 156 93 204 16 65 24 439 10 528 -13 88 -49 202 -61
195 -10 -6 -22 24 -14 36 3 5 0 9 -7 9 -7 0 -9 3 -6 7 4 3 -1 12 -11 20 -9 8
-11 11 -4 8 11 -6 12 -3 2 14 -6 12 -15 19 -20 16 -6 -3 -7 0 -4 8 3 8 -3 20
-12 28 -16 12 -17 12 -9 -1 8 -13 7 -13 -8 -1 -20 16 -23 36 -4 25 6 -4 4 2
-7 14 -10 12 -21 21 -25 20 -22 -2 -32 4 -27 18 3 9 2 12 -4 9 -6 -4 -27 7
-48 23 -40 31 -106 66 -97 51 10 -16 -1 -10 -28 15 -14 13 -24 25 -22 27 2 2
-13 5 -33 5 -77 3 -102 8 -98 20 5 14 -60 33 -139 40 -192 19 -312 23 -815 26
-311 2 -576 2 -589 0z m1481 -101 c339 -86 498 -275 501 -596 2 -226 -99 -406
-282 -503 -45 -24 -79 -48 -76 -53 4 -5 -1 -6 -9 -3 -19 7 -31 -32 -16 -51 7
-8 21 -15 30 -15 10 0 31 -7 47 -15 15 -8 53 -24 84 -36 70 -27 173 -109 217
-174 25 -38 27 -42 5 -16 -69 84 -137 138 -215 167 -24 9 -61 25 -84 35 -22
11 -52 19 -66 19 -22 0 -26 -4 -23 -25 2 -24 29 -54 48 -55 23 -1 128 -59 140
-77 4 -7 15 -13 22 -13 8 0 15 -7 15 -16 0 -8 13 -20 30 -25 16 -6 29 -14 28
-17 -1 -4 3 -17 10 -28 10 -20 9 -22 -20 -28 -59 -12 -117 -6 -154 15 -29 16
-42 18 -64 11 -21 -8 -31 -6 -43 6 -28 30 -46 42 -61 42 -9 0 -13 6 -10 14 5
13 -36 46 -65 51 -9 1 -15 7 -14 12 1 6 -8 8 -20 6 -14 -2 -33 6 -51 22 -16
14 -37 25 -47 25 -10 0 -21 4 -24 10 -3 5 0 7 8 4 8 -3 18 -1 22 5 3 7 -2 11
-14 11 -32 0 -50 11 -44 26 3 10 -2 14 -18 14 -13 0 -31 5 -39 10 -12 8 -10
10 10 11 l25 1 -28 10 c-15 5 -25 14 -21 19 3 5 -5 10 -18 10 -20 1 -21 2 -3
6 23 6 88 34 95 42 3 4 21 14 40 24 76 39 130 82 130 104 0 7 4 13 9 13 16 0
58 102 65 155 4 36 3 44 -4 28 -20 -48 -81 -127 -125 -164 -57 -47 -135 -77
-234 -90 -92 -11 -654 -11 -686 1 -42 16 -45 45 -43 385 l3 320 3 -327 c2
-313 3 -329 22 -348 19 -19 33 -20 298 -20 267 1 450 14 530 39 91 28 184 120
216 215 21 60 21 187 0 256 -32 109 -164 205 -314 229 -36 6 -211 12 -390 13
-179 1 -275 3 -215 5 61 1 196 7 301 13 143 9 214 9 287 0 67 -8 102 -8 114
-1 15 9 14 10 -12 11 -22 0 -26 3 -15 10 16 10 11 13 -35 23 -11 3 -2 6 20 7
32 1 36 3 20 10 -11 5 -33 9 -50 9 -43 2 -11 21 35 21 l35 1 -34 14 c-18 8
-44 12 -57 9 -17 -5 -24 -2 -22 6 2 7 -8 17 -22 21 -19 5 -11 7 30 9 l55 2
-35 13 c-35 13 -35 13 -7 14 16 1 38 6 50 13 25 13 387 18 387 6 0 -5 -8 -8
-17 -8 -12 0 -14 -3 -6 -11 7 -7 17 -8 27 -2 14 8 14 12 3 27 -15 20 -92 33
-81 14 4 -7 2 -8 -5 -4 -9 6 -9 11 1 24 7 9 8 13 2 9 -11 -6 -72 6 -109 23
-60 27 -313 38 -900 42 l-520 3 440 6 c242 3 541 5 665 3 213 -2 231 -4 342
-33z m-325 -237 c-3 -3 -12 -4 -19 -1 -8 3 -5 6 6 6 11 1 17 -2 13 -5z m-1170
-891 c-1 -98 -2 -20 -2 172 -1 193 1 273 2 178 2 -94 2 -252 0 -350z m570 214
c-1 -45 -3 -5 -3 88 0 94 2 130 3 82 2 -48 2 -125 0 -170z m659 212 c67 -12
150 -53 170 -85 24 -36 13 -75 -34 -122 -27 -27 -49 -42 -58 -38 -8 3 -13 2
-10 -3 3 -4 -11 -14 -32 -21 -44 -16 -569 -27 -623 -13 l-34 9 -3 129 c-1 71
0 135 2 142 7 17 532 19 622 2z m694 -392 c0 -2 -17 -19 -37 -38 l-38 -34 34
38 c33 34 41 42 41 34z m-650 -277 c41 -1 84 -7 95 -13 11 -6 29 -10 40 -9 11
1 14 -1 7 -4 -21 -9 116 -76 142 -69 16 5 18 4 7 -4 -16 -11 -8 -34 28 -81 11
-14 22 -36 26 -50 4 -14 -11 1 -33 35 -45 69 -123 121 -232 157 -60 20 -93 22
-420 27 l-355 6 255 5 c256 5 302 5 440 0z m-813 -107 c-3 -10 -5 -4 -5 12 0
17 2 24 5 18 2 -7 2 -21 0 -30z m1603 -85 c17 -35 30 -70 29 -78 0 -8 -6 1
-14 21 -7 19 -22 54 -34 77 -12 23 -19 42 -16 42 3 0 19 -28 35 -62z m-423
-120 c-3 -8 -6 -5 -6 6 -1 11 2 17 5 13 3 -3 4 -12 1 -19z m-358 -78 c107 -18
203 -82 230 -153 13 -34 -1 -67 -48 -111 -17 -16 -28 -33 -25 -37 3 -5 -3 -6
-12 -2 -12 4 -15 3 -10 -5 5 -8 1 -10 -10 -5 -12 4 -15 3 -10 -5 5 -8 1 -10
-10 -5 -10 3 -15 2 -12 -3 4 -5 -4 -10 -15 -11 -67 -5 -116 -17 -110 -26 4 -7
-10 -8 -42 -4 -26 4 -173 7 -326 7 l-279 0 0 118 c0 64 3 147 7 185 l6 67 301
0 c166 0 330 -5 365 -10z m131 -410 c-8 -5 -22 -9 -30 -9 -10 0 -8 3 5 9 27
12 43 12 25 0z m-70 -22 c-14 -7 -97 -12 -195 -13 l-170 -3 172 7 c94 3 175 9
179 14 4 4 14 7 23 6 10 0 6 -5 -9 -11z m450 -213 c0 -19 -241 -116 -288 -115
-10 0 36 18 100 39 65 21 132 48 150 60 36 22 38 23 38 16z"/>
<path d="M2778 3783 c6 -2 18 -2 25 0 6 3 1 5 -13 5 -14 0 -19 -2 -12 -5z"/>
<path d="M3151 3769 l-25 -10 33 -20 c18 -11 37 -17 42 -13 5 3 8 0 7 -7 -2
-7 6 -17 17 -23 12 -6 31 -21 44 -33 13 -12 29 -19 37 -16 8 3 14 -1 14 -10 0
-8 -6 -18 -12 -20 -7 -3 -3 -6 10 -6 12 -1 21 -4 20 -8 -4 -13 28 -53 36 -46
4 4 4 0 0 -10 -4 -12 -1 -17 11 -17 12 0 15 -5 10 -20 -3 -11 -2 -20 3 -20 5
0 13 -16 16 -35 4 -19 11 -35 15 -35 15 0 -29 142 -54 175 -14 17 -25 34 -25
38 0 8 -90 97 -99 97 -4 0 -21 11 -37 25 -32 28 -30 27 -63 14z"/>
</g>
</svg>
